<svg width="502" height="101" viewBox="0 0 502 101" fill="none" xmlns="http://www.w3.org/2000/svg">
<path d="M43.2934 53.304L11.9334 82.616L0.925388 67.896L22.1734 48.824L0.925388 29.368L11.4214 14.904L43.2934 44.472V53.304ZM98.9164 100.536H47.4604V87.224H98.9164V100.536ZM339.9 58.296H300.604V41.144H339.9V58.296ZM382.693 20.28C390.715 20.28 396.048 22.6267 398.693 27.32C401.339 31.928 402.661 39.9067 402.661 51.256C402.661 62.52 401.253 70.84 398.437 76.216C395.621 81.592 390.117 84.28 381.925 84.28C375.525 84.28 371.045 82.616 368.485 79.288H367.973L366.693 83H349.925V0.951996H371.301V23.096H371.813C374.629 21.2187 378.256 20.28 382.693 20.28ZM380.389 63.8C380.731 62.264 380.944 60.7707 381.029 59.32C381.115 57.8693 381.157 55.1387 381.157 51.128C381.157 47.032 380.859 43.9173 380.261 41.784C379.664 39.5653 378.427 38.456 376.549 38.456C374.757 38.456 372.965 38.968 371.173 39.992V66.488C372.795 67.256 374.331 67.64 375.781 67.64C377.317 67.64 378.384 67.384 378.981 66.872C379.664 66.2747 380.133 65.2507 380.389 63.8ZM455.758 37.688L455.118 64.184C455.118 65.8053 455.502 66.9147 456.27 67.512C457.124 68.024 458.532 68.28 460.494 68.28L458.574 83.768C453.625 84.1093 450.894 84.28 450.382 84.28C444.068 84.28 440.057 82.104 438.35 77.752H437.71C434.553 82.104 429.689 84.28 423.118 84.28C418.084 84.28 414.201 82.6587 411.47 79.416C408.825 76.1733 407.502 71.736 407.502 66.104C407.502 59.0213 409.678 54.1147 414.03 51.384C418.468 48.6533 425.422 46.8613 434.894 46.008V42.936C434.894 40.5467 433.7 39.352 431.31 39.352C427.214 39.352 420.814 40.5893 412.11 43.064L408.91 24.376C419.833 21.56 428.921 20.152 436.174 20.152C443.428 20.152 448.505 21.56 451.406 24.376C454.308 27.192 455.758 31.6293 455.758 37.688ZM431.054 69.304C434.212 69.304 435.79 67.64 435.79 64.312V58.04C432.633 58.4667 430.372 59.1493 429.006 60.088C427.726 60.9413 427.086 62.4347 427.086 64.568C427.086 67.7253 428.409 69.304 431.054 69.304ZM486.548 48.568V83H465.3V21.688H483.988L485.268 25.4H485.78C487.743 23.1813 489.706 21.7733 491.668 21.176C493.716 20.4933 497.002 20.152 501.524 20.152L500.628 40.632H494.74C491.412 40.632 489.194 41.144 488.084 42.168C487.06 43.192 486.548 45.3253 486.548 48.568Z" fill="#D7D7D7"/>
<path d="M129.552 38.84C127.078 38.84 125.414 39.992 124.56 42.296C123.707 44.5147 123.28 48.0133 123.28 52.792C123.28 57.5707 123.664 61.0267 124.432 63.16C125.286 65.2933 126.992 66.36 129.552 66.36C132.198 66.36 135.611 65.8907 139.792 64.952L142.096 81.336C136.208 83.2987 130.96 84.28 126.352 84.28C118.246 84.28 112.102 81.5493 107.92 76.088C103.824 70.6267 101.776 62.9893 101.776 53.176C101.776 43.3627 103.91 35.4267 108.176 29.368C112.443 23.224 118.63 20.152 126.736 20.152C132.795 20.152 138.256 21.176 143.12 23.224L140.816 42.04C135.867 39.9067 132.112 38.84 129.552 38.84ZM198.893 26.168C203.587 22.1573 208.749 20.152 214.381 20.152C220.013 20.152 223.939 21.4747 226.157 24.12C228.461 26.68 229.613 30.5627 229.613 35.768V83H207.853V43.064C207.853 40.9307 206.915 39.864 205.037 39.864C202.648 39.864 200.643 40.4613 199.021 41.656V83H177.261V43.064C177.261 40.9307 176.323 39.864 174.445 39.864C172.056 39.864 170.051 40.4613 168.429 41.656V83H146.925V21.688H166.509L167.789 26.168H168.301C172.995 22.1573 178.541 20.152 184.941 20.152C191.427 20.152 195.651 22.5413 197.613 27.32L198.893 26.168ZM291.572 83.768L282.996 84.28C276.426 84.28 272.415 82.104 270.964 77.752H270.324C267.508 82.104 263.199 84.28 257.396 84.28C249.716 84.28 244.298 81.592 241.14 76.216C238.068 70.84 236.532 62.8613 236.532 52.28C236.532 41.6133 238.282 33.592 241.78 28.216C245.279 22.84 250.314 20.152 256.884 20.152C261.407 20.152 264.906 21.2187 267.38 23.352V0.951996H288.756V64.184C288.756 65.8053 289.098 66.9147 289.78 67.512C290.463 68.024 291.7 68.28 293.492 68.28L291.572 83.768ZM262.516 38.2C260.724 38.2 259.53 39.3093 258.932 41.528C258.335 43.6613 258.036 46.776 258.036 50.872C258.036 54.8827 258.079 57.6133 258.164 59.064C258.25 60.5147 258.42 62.008 258.676 63.544C259.018 64.9947 259.487 66.0187 260.084 66.616C260.767 67.128 261.834 67.384 263.284 67.384C264.82 67.384 266.399 67 268.02 66.232V39.736C266.228 38.712 264.394 38.2 262.516 38.2Z" fill="#1B6EA9"/>
</svg>
